<svg version="1.1" id="Layer_1" xmlns="http://www.w3.org/2000/svg" xmlns:xlink="http://www.w3.org/1999/xlink" x="0px" y="0px"
	 width="100%" viewBox="0 0 236 270" enable-background="new 0 0 236 270" xml:space="preserve">
<path fill="#FFFFFF" opacity="1.000000" stroke="none" 
	d="
M1.000000,71.000000 
	C1.000000,47.333336 1.000000,24.166670 1.000000,1.000003 
	C79.666664,1.000002 158.333328,1.000002 237.000000,1.000001 
	C237.000000,90.999992 237.000000,180.999985 237.000000,271.000000 
	C158.333344,271.000000 79.666702,271.000000 1.000024,271.000000 
	C1.000000,204.500000 1.000000,138.000000 1.000000,71.000000 
M229.977890,23.182184 
	C229.642288,18.451347 229.306671,13.720510 228.587128,8.212155 
	C227.928360,8.142256 227.269608,8.011226 226.610825,8.011133 
	C155.579941,8.001122 84.549072,7.996207 13.518220,8.041311 
	C12.354930,8.042049 11.192033,8.659834 9.410254,9.558093 
	C9.273134,11.201344 9.016438,12.844565 9.016047,14.487848 
	C8.996510,96.610771 9.053954,178.733826 8.869734,260.856354 
	C8.857990,266.091156 10.384281,267.120361 15.300612,267.108429 
	C81.931404,266.947021 148.562729,267.015472 215.193863,266.967468 
	C219.953094,266.964050 226.564560,268.262665 228.957733,265.753723 
	C231.424408,263.167786 229.782974,256.663300 229.990891,250.953995 
	C229.973862,175.345474 229.956833,99.736961 229.977890,23.182184 
z"/>
<path fill="#F3E9DD" opacity="1.000000" stroke="none" 
	d="
M229.938934,251.873260 
	C229.782974,256.663300 231.424408,263.167786 228.957733,265.753723 
	C226.564560,268.262665 219.953094,266.964050 215.193863,266.967468 
	C148.562729,267.015472 81.931404,266.947021 15.300612,267.108429 
	C10.384281,267.120361 8.857990,266.091156 8.869734,260.856354 
	C9.053954,178.733826 8.996510,96.610771 9.016047,14.487848 
	C9.016438,12.844565 9.273134,11.201344 10.186375,9.278749 
	C83.632011,8.996161 156.301529,8.992917 228.971054,8.989672 
	C229.306671,13.720510 229.642288,18.451347 229.586075,23.855061 
	C229.129776,25.188507 229.008881,25.849066 229.008789,26.509642 
	C228.999481,100.452446 228.994812,174.395248 229.037476,248.338043 
	C229.038147,249.516617 229.625412,250.694855 229.938934,251.873260 
M61.500000,251.999908 
	C103.764626,251.666306 146.029205,251.327408 188.293915,251.005203 
	C194.126129,250.960754 199.966858,250.814850 205.788681,251.064621 
	C209.582382,251.227386 211.085281,250.195923 211.079010,246.064224 
	C210.969177,173.740845 210.973114,101.417213 211.072220,29.093807 
	C211.077606,25.163895 209.935043,23.938536 205.949905,23.921032 
	C158.185486,23.711227 110.421875,23.323521 62.657871,23.009020 
	C53.326206,22.947577 43.989204,23.179253 34.663250,22.940458 
	C27.862877,22.766333 25.976562,22.662251 25.980999,31.685202 
	C26.015659,102.175644 26.000170,172.666107 26.000242,243.156570 
	C26.000244,244.156433 25.966900,245.157715 26.007803,246.155930 
	C26.164619,249.982895 27.515612,252.205948 32.006111,252.080521 
	C41.497421,251.815399 51.001286,251.999863 61.500000,251.999908 
z"/>
<path fill="#876445" opacity="1.000000" stroke="none" 
	d="
M229.964905,251.413635 
	C229.625412,250.694855 229.038147,249.516617 229.037476,248.338043 
	C228.994812,174.395248 228.999481,100.452446 229.008789,26.509642 
	C229.008881,25.849066 229.129776,25.188507 229.567017,24.328194 
	C229.956833,99.736961 229.973862,175.345474 229.964905,251.413635 
z"/>
<path fill="#876445" opacity="1.000000" stroke="none" 
	d="
M228.779083,8.600914 
	C156.301529,8.992917 83.632011,8.996161 10.495723,8.994539 
	C11.192033,8.659834 12.354930,8.042049 13.518220,8.041311 
	C84.549072,7.996207 155.579941,8.001122 226.610825,8.011133 
	C227.269608,8.011226 227.928360,8.142256 228.779083,8.600914 
z"/>
<path fill="#876445" opacity="1.000000" stroke="none" 
	d="
M61.000000,251.999908 
	C51.001286,251.999863 41.497421,251.815399 32.006111,252.080521 
	C27.515612,252.205948 26.164619,249.982895 26.007803,246.155930 
	C25.966900,245.157715 26.000244,244.156433 26.000242,243.156570 
	C26.000170,172.666107 26.015659,102.175644 25.980999,31.685202 
	C25.976562,22.662251 27.862877,22.766333 34.663250,22.940458 
	C43.989204,23.179253 53.326206,22.947577 62.657871,23.009020 
	C110.421875,23.323521 158.185486,23.711227 205.949905,23.921032 
	C209.935043,23.938536 211.077606,25.163895 211.072220,29.093807 
	C210.973114,101.417213 210.969177,173.740845 211.079010,246.064224 
	C211.085281,250.195923 209.582382,251.227386 205.788681,251.064621 
	C199.966858,250.814850 194.126129,250.960754 188.293915,251.005203 
	C146.029205,251.327408 103.764626,251.666306 61.000000,251.999908 
M199.770874,108.455200 
	C199.851196,90.947121 199.942825,73.439049 199.969650,55.930889 
	C199.970703,55.244854 199.352325,54.557873 199.002930,53.107750 
	C195.259048,38.743961 183.306732,29.020517 167.583054,27.282084 
	C161.519424,27.190063 155.454483,26.985474 149.392731,27.055719 
	C146.559372,27.088556 143.732162,27.652763 140.080536,27.989634 
	C125.703186,29.412594 112.035515,40.126740 110.020149,53.991627 
	C110.013710,68.320831 109.993378,82.650040 110.003464,96.979240 
	C110.033028,138.965607 110.074699,180.951965 110.258415,223.645996 
	C113.503242,234.174332 120.724464,241.043808 130.612732,245.209045 
	C141.421280,249.761887 152.887924,249.662354 164.240555,248.697815 
	C172.775421,247.972656 181.034576,245.686996 187.940094,240.045090 
	C193.996597,235.096832 198.732574,229.417435 199.743332,220.619690 
	C199.743332,201.204788 199.743332,181.789871 199.743332,162.032028 
	C187.784882,162.032028 176.160049,162.019424 164.535507,162.071915 
	C163.995041,162.074341 163.457199,162.658722 162.985428,162.992294 
	C162.985428,162.992294 162.981064,162.922165 162.274094,163.425766 
	C162.226028,180.250244 162.177963,197.074707 161.814285,214.541916 
	C155.737762,220.930725 151.331894,220.455673 146.969681,212.009857 
	C147.010742,162.008057 147.051804,112.006271 147.668121,61.628174 
	C152.045059,55.234539 157.079788,55.065395 162.049286,62.049644 
	C162.032623,76.477386 161.994019,90.905197 162.040161,105.332741 
	C162.043945,106.510849 162.625702,107.687111 163.506805,108.918686 
	C163.695816,108.897789 163.884842,108.876900 164.991638,108.966385 
	C176.338623,108.929794 187.685623,108.893204 199.770874,108.455200 
M76.085274,29.032036 
	C64.382332,29.066599 52.679394,29.101164 40.212234,29.504824 
	C40.142490,30.164173 40.011749,30.823515 40.011654,31.482876 
	C40.001598,101.744774 39.996796,172.006683 40.039040,242.268555 
	C40.039753,243.458542 40.617516,244.648178 41.867218,245.942947 
	C53.600018,245.911285 65.332817,245.879639 77.781715,245.423355 
	C77.853249,244.764145 77.987343,244.104950 77.987442,243.445724 
	C77.997940,173.174500 78.003098,102.903267 77.958694,32.632069 
	C77.957954,31.465460 77.346924,30.299238 76.085274,29.032036 
z"/>
<path fill="#DAB88B" opacity="1.000000" stroke="none" 
	d="
M199.019943,221.112610 
	C198.732574,229.417435 193.996597,235.096832 187.940094,240.045090 
	C181.034576,245.686996 172.775421,247.972656 164.240555,248.697815 
	C152.887924,249.662354 141.421280,249.761887 130.612732,245.209045 
	C120.724464,241.043808 113.503242,234.174332 110.463989,222.993317 
	C110.779587,221.691833 110.985779,221.043045 110.985962,220.394196 
	C111.001183,165.864899 111.006172,111.335587 110.964607,56.806320 
	C110.963661,55.561611 110.423035,54.317310 110.134140,53.072819 
	C112.035515,40.126740 125.703186,29.412594 140.968140,27.993137 
	C150.606598,27.989206 159.357422,27.981773 168.108261,27.974339 
	C183.306732,29.020517 195.259048,38.743961 198.992889,53.967972 
	C198.973740,72.545967 198.964630,90.263748 198.491364,107.988319 
	C189.600800,107.996849 181.173447,107.927284 172.748505,108.039505 
	C169.853851,108.078056 166.965225,108.570770 164.073853,108.856003 
	C163.884842,108.876900 163.695816,108.897789 163.240723,108.433456 
	C162.977203,94.082626 163.008224,80.216896 162.946396,66.351585 
	C162.938660,64.613594 162.440842,62.877789 162.170105,61.140972 
	C157.079788,55.065395 152.045059,55.234539 147.059753,62.091438 
	C146.301361,63.692455 146.020645,64.830147 146.020126,65.967964 
	C145.998169,113.544334 145.993729,161.120712 146.037842,208.697052 
	C146.039154,210.108612 146.583099,211.519699 146.874039,212.931000 
	C151.331894,220.455673 155.737762,220.930725 162.250397,213.924973 
	C162.784698,196.512741 162.882874,179.717453 162.981064,162.922165 
	C162.981064,162.922165 162.985428,162.992294 163.427231,162.985687 
	C174.015640,162.984543 184.165833,163.146881 194.306961,162.913849 
	C198.062347,162.827560 199.120636,164.002457 199.084625,167.719437 
	C198.912109,185.515701 199.014954,203.314621 199.019943,221.112610 
z"/>
<path fill="#DAB88B" opacity="1.000000" stroke="none" 
	d="
M77.065613,245.847992 
	C65.332817,245.879639 53.600018,245.911285 41.417114,245.434662 
	C40.993122,173.297165 41.019234,101.667953 41.508968,30.022678 
	C53.629951,30.020483 65.287308,30.034346 76.963699,30.513477 
	C77.010368,102.601830 77.037987,174.224915 77.065613,245.847992 
z"/>
<path fill="#EAD9C2" opacity="1.000000" stroke="none" 
	d="
M41.045341,30.038738 
	C41.019234,101.667953 40.993122,173.297165 40.946510,245.382172 
	C40.617516,244.648178 40.039753,243.458542 40.039040,242.268555 
	C39.996796,172.006683 40.001598,101.744774 40.011654,31.482876 
	C40.011749,30.823515 40.142490,30.164173 40.610855,29.546032 
	C41.009476,29.587238 41.045345,30.038738 41.045341,30.038738 
z"/>
<path fill="#EAD7C0" opacity="1.000000" stroke="none" 
	d="
M77.423660,245.635681 
	C77.037987,174.224915 77.010368,102.601830 76.984695,30.284542 
	C76.986656,29.590338 77.020683,29.132837 77.020691,29.132835 
	C77.346924,30.299238 77.957954,31.465460 77.958694,32.632069 
	C78.003098,102.903267 77.997940,173.174500 77.987442,243.445724 
	C77.987343,244.104950 77.853249,244.764145 77.423660,245.635681 
z"/>
<path fill="#DFC39D" opacity="1.000000" stroke="none" 
	d="
M110.077148,53.532223 
	C110.423035,54.317310 110.963661,55.561611 110.964607,56.806320 
	C111.006172,111.335587 111.001183,165.864899 110.985962,220.394196 
	C110.985779,221.043045 110.779587,221.691833 110.390594,222.639496 
	C110.074699,180.951965 110.033028,138.965607 110.003464,96.979240 
	C109.993378,82.650040 110.013710,68.320831 110.077148,53.532223 
z"/>
<path fill="#E0C39F" opacity="1.000000" stroke="none" 
	d="
M146.921860,212.470428 
	C146.583099,211.519699 146.039154,210.108612 146.037842,208.697052 
	C145.993729,161.120712 145.998169,113.544334 146.020126,65.967964 
	C146.020645,64.830147 146.301361,63.692455 146.772125,62.279587 
	C147.051804,112.006271 147.010742,162.008057 146.921860,212.470428 
z"/>
<path fill="#E8D4BA" opacity="1.000000" stroke="none" 
	d="
M199.381638,220.866150 
	C199.014954,203.314621 198.912109,185.515701 199.084625,167.719437 
	C199.120636,164.002457 198.062347,162.827560 194.306961,162.913849 
	C184.165833,163.146881 174.015640,162.984543 163.393585,162.975555 
	C163.457199,162.658722 163.995041,162.074341 164.535507,162.071915 
	C176.160049,162.019424 187.784882,162.032028 199.743332,162.032028 
	C199.743332,181.789871 199.743332,201.204788 199.381638,220.866150 
z"/>
<path fill="#E7D3B8" opacity="1.000000" stroke="none" 
	d="
M198.955505,107.981522 
	C198.964630,90.263748 198.973740,72.545967 199.002716,54.349762 
	C199.352325,54.557873 199.970703,55.244854 199.969650,55.930889 
	C199.942825,73.439049 199.851196,90.947121 199.383118,108.437164 
	C198.995361,108.419128 198.955521,107.981522 198.955505,107.981522 
z"/>
<path fill="#EDDCC7" opacity="1.000000" stroke="none" 
	d="
M162.627579,163.173965 
	C162.882874,179.717453 162.784698,196.512741 162.408203,213.603607 
	C162.177963,197.074707 162.226028,180.250244 162.627579,163.173965 
z"/>
<path fill="#EDDCC7" opacity="1.000000" stroke="none" 
	d="
M162.109695,61.595306 
	C162.440842,62.877789 162.938660,64.613594 162.946396,66.351585 
	C163.008224,80.216896 162.977203,94.082626 162.956757,108.406227 
	C162.625702,107.687111 162.043945,106.510849 162.040161,105.332741 
	C161.994019,90.905197 162.032623,76.477386 162.109695,61.595306 
z"/>
<path fill="#E2C8A7" opacity="1.000000" stroke="none" 
	d="
M76.552979,29.082436 
	C77.020683,29.132837 76.986656,29.590338 76.965660,29.819273 
	C65.287308,30.034346 53.629951,30.020483 41.508972,30.022678 
	C41.045345,30.038738 41.009476,29.587238 40.992966,29.361483 
	C52.679394,29.101164 64.382332,29.066599 76.552979,29.082436 
z"/>
<path fill="#DEBF98" opacity="1.000000" stroke="none" 
	d="
M198.491364,107.988319 
	C198.955521,107.981522 198.995361,108.419128 199.013977,108.637871 
	C187.685623,108.893204 176.338623,108.929794 164.532745,108.911194 
	C166.965225,108.570770 169.853851,108.078056 172.748505,108.039505 
	C181.173447,107.927284 189.600800,107.996849 198.491364,107.988319 
z"/>
<path fill="#E3C8A5" opacity="1.000000" stroke="none" 
	d="
M167.845657,27.628212 
	C159.357422,27.981773 150.606598,27.989206 141.378967,27.986387 
	C143.732162,27.652763 146.559372,27.088556 149.392731,27.055719 
	C155.454483,26.985474 161.519424,27.190063 167.845657,27.628212 
z"/>
</svg>